<?xml version="1.0" encoding="UTF-8"?>
<svg id="Layer_2" xmlns="http://www.w3.org/2000/svg" viewBox="0 0 90.33 90.33">
  <defs>
    <style>
      .cls-1 {
        fill: #727272;
      }

      .cls-2 {
        fill: #8e8e8e;
      }

      .cls-3 {
        fill: #d8d7d6;
      }

      .cls-4 {
        fill: #bfbab4;
      }
    </style>
  </defs>
  <g id="Layer_1-2" data-name="Layer_1">
    <g>
      <g>
        <path class="cls-3" d="M41.42,17.71l-10.47-10.42c-.81-.81-.55-2.19.5-2.64L41.9.13c1.07-.46,2.27.32,2.27,1.49l.03,14.93c0,1.45-1.74,2.18-2.77,1.15Z"/>
        <path class="cls-3" d="M48.91,17.71l10.47-10.42c.81-.81.55-2.19-.5-2.64L48.43.13c-1.07-.46-2.27.32-2.27,1.49l-.03,14.93c0,1.45,1.74,2.18,2.77,1.15Z"/>
        <path class="cls-3" d="M48.91,72.63l10.47,10.42c.81.81.55,2.19-.5,2.64l-10.45,4.51c-1.07.46-2.27-.32-2.27-1.49l-.03-14.93c0-1.45,1.74-2.18,2.77-1.15Z"/>
        <path class="cls-3" d="M41.42,72.63l-10.47,10.42c-.81.81-.55,2.19.5,2.64l10.45,4.51c1.07.46,2.27-.32,2.27-1.49l.03-14.93c0-1.45-1.74-2.18-2.77-1.15Z"/>
        <path class="cls-3" d="M61.94,23.1l-.04-14.78c0-1.15,1.16-1.94,2.22-1.51l10.58,4.2c1.08.43,1.37,1.83.55,2.66l-10.54,10.57c-1.02,1.02-2.77.3-2.78-1.14Z"/>
        <path class="cls-3" d="M67.23,28.4l14.78.04c1.15,0,1.94-1.16,1.51-2.22l-4.2-10.58c-.43-1.08-1.83-1.37-2.66-.55l-10.57,10.54c-1.02,1.02-.3,2.77,1.14,2.78Z"/>
        <path class="cls-3" d="M28.4,67.23l.04,14.78c0,1.15-1.16,1.94-2.22,1.51l-10.58-4.2c-1.08-.43-1.37-1.83-.55-2.66l10.54-10.57c1.02-1.02,2.77-.3,2.78,1.14Z"/>
        <path class="cls-3" d="M23.1,61.94l-14.78-.04c-1.15,0-1.94,1.16-1.51,2.22l4.2,10.58c.43,1.08,1.83,1.37,2.66.55l10.57-10.54c1.02-1.02.3-2.77-1.14-2.78Z"/>
        <path class="cls-3" d="M72.63,41.42l10.42-10.47c.81-.81,2.19-.55,2.64.5l4.51,10.45c.46,1.07-.32,2.27-1.49,2.27l-14.93.03c-1.45,0-2.18-1.74-1.15-2.77Z"/>
        <path class="cls-3" d="M72.63,48.91l10.42,10.47c.81.81,2.19.55,2.64-.5l4.51-10.45c.46-1.07-.32-2.27-1.49-2.27l-14.93-.03c-1.45,0-2.18,1.74-1.15,2.77Z"/>
        <path class="cls-3" d="M17.71,48.91l-10.42,10.47c-.81.81-2.19.55-2.64-.5L.13,48.43c-.46-1.07.32-2.27,1.49-2.27l14.93-.03c1.45,0,2.18,1.74,1.15,2.77Z"/>
        <path class="cls-3" d="M17.71,41.42l-10.42-10.47c-.81-.81-2.19-.55-2.64.5L.13,41.9c-.46,1.07.32,2.27,1.49,2.27l14.93.03c1.45,0,2.18-1.74,1.15-2.77Z"/>
        <path class="cls-3" d="M67.23,61.94l14.78-.04c1.15,0,1.94,1.16,1.51,2.22l-4.2,10.58c-.43,1.08-1.83,1.37-2.66.55l-10.57-10.54c-1.02-1.02-.3-2.77,1.14-2.78Z"/>
        <path class="cls-3" d="M61.94,67.23l-.04,14.78c0,1.15,1.16,1.94,2.22,1.51l10.58-4.2c1.08-.43,1.37-1.83.55-2.66l-10.54-10.57c-1.02-1.02-2.77-.3-2.78,1.14Z"/>
        <path class="cls-3" d="M23.1,28.4l-14.78.04c-1.15,0-1.94-1.16-1.51-2.22l4.2-10.58c.43-1.08,1.83-1.37,2.66-.55l10.57,10.54c1.02,1.02.3,2.77-1.14,2.78Z"/>
        <path class="cls-3" d="M28.4,23.1l.04-14.78c0-1.15-1.16-1.94-2.22-1.51l-10.58,4.2c-1.08.43-1.37,1.83-.55,2.66l10.54,10.57c1.02,1.02,2.77.3,2.78-1.14Z"/>
      </g>
      <g>
        <path class="cls-1" d="M41.61,40.41l-10.72-10.67c-.77-.77-.52-2.07.47-2.5l10.7-4.61c1.01-.44,2.14.3,2.14,1.41l.03,15.28c0,1.37-1.65,2.05-2.62,1.09Z"/>
        <path class="cls-1" d="M48.73,40.41l10.72-10.67c.77-.77.52-2.07-.47-2.5l-10.7-4.61c-1.01-.44-2.14.3-2.14,1.41l-.03,15.28c0,1.37,1.65,2.05,2.62,1.09Z"/>
        <path class="cls-1" d="M48.73,49.72l10.72,10.67c.77.77.52,2.07-.47,2.5l-10.7,4.61c-1.01.44-2.14-.3-2.14-1.41l-.03-15.28c0-1.37,1.65-2.05,2.62-1.09Z"/>
        <path class="cls-1" d="M41.61,49.72l-10.72,10.67c-.77.77-.52,2.07.47,2.5l10.7,4.61c1.01.44,2.14-.3,2.14-1.41l.03-15.28c0-1.37-1.65-2.05-2.62-1.09Z"/>
        <path class="cls-1" d="M49.82,41.5l10.67-10.72c.77-.77,2.07-.52,2.5.47l4.61,10.7c.44,1.01-.3,2.14-1.41,2.14l-15.28.03c-1.37,0-2.05-1.65-1.09-2.62Z"/>
        <path class="cls-1" d="M49.82,48.63l10.67,10.72c.77.77,2.07.52,2.5-.47l4.61-10.7c.44-1.01-.3-2.14-1.41-2.14l-15.28-.03c-1.37,0-2.05,1.65-1.09,2.62Z"/>
        <path class="cls-1" d="M40.52,48.63l-10.67,10.72c-.77.77-2.07.52-2.5-.47l-4.61-10.7c-.44-1.01.3-2.14,1.41-2.14l15.28-.03c1.37,0,2.05,1.65,1.09,2.62Z"/>
        <path class="cls-1" d="M40.52,41.5l-10.67-10.72c-.77-.77-2.07-.52-2.5.47l-4.61,10.7c-.44,1.01.3,2.14,1.41,2.14l15.28.03c1.37,0,2.05-1.65,1.09-2.62Z"/>
      </g>
      <g>
        <path class="cls-2" d="M31.47,4.63l5.28-2.26,6.63,15.58c-.59.34-1.38.33-1.95-.23l-10.51-10.45c-.82-.82-.54-2.21.54-2.64Z"/>
        <path class="cls-2" d="M58.87,4.63l-5.28-2.26-6.63,15.58c.59.34,1.38.33,1.95-.23l10.51-10.45c.82-.82.54-2.21-.54-2.64Z"/>
        <path class="cls-2" d="M58.87,85.71l-5.28,2.26-6.63-15.58c.59-.34,1.38-.33,1.95.23l10.51,10.45c.82.82.54,2.21-.54,2.64Z"/>
        <path class="cls-2" d="M31.47,85.71l5.28,2.26,6.63-15.58c-.59-.34-1.38-.33-1.95.23l-10.51,10.45c-.82.82-.54,2.21.54,2.64Z"/>
        <path class="cls-2" d="M64.14,6.81l5.33,2.14-6.33,15.71c-.66-.17-1.21-.74-1.21-1.54l-.04-14.82c0-1.16,1.18-1.94,2.25-1.49Z"/>
        <path class="cls-2" d="M83.52,26.19l-2.14-5.33-15.71,6.33c.17.66.74,1.21,1.54,1.21l14.82.04c1.16,0,1.94-1.18,1.49-2.25Z"/>
        <path class="cls-2" d="M26.19,83.52l-5.33-2.14,6.33-15.71c.66.17,1.21.74,1.21,1.54l.04,14.82c0,1.16-1.18,1.94-2.25,1.49Z"/>
        <path class="cls-2" d="M6.81,64.14l2.14,5.33,15.71-6.33c-.17-.66-.74-1.21-1.54-1.21l-14.82-.04c-1.16,0-1.94,1.18-1.49,2.25Z"/>
        <path class="cls-2" d="M85.71,31.47l2.26,5.28-15.58,6.63c-.34-.59-.33-1.38.23-1.95l10.45-10.51c.82-.82,2.21-.54,2.64.54Z"/>
        <path class="cls-2" d="M85.71,58.87l2.26-5.28-15.58-6.63c-.34.59-.33,1.38.23,1.95l10.45,10.51c.82.82,2.21.54,2.64-.54Z"/>
        <path class="cls-2" d="M4.63,58.87l-2.26-5.28,15.58-6.63c.34.59.33,1.38-.23,1.95l-10.45,10.51c-.82.82-2.21.54-2.64-.54Z"/>
        <path class="cls-2" d="M4.63,31.47l-2.26,5.28,15.58,6.63c.34-.59.33-1.38-.23-1.95l-10.45-10.51c-.82-.82-2.21-.54-2.64.54Z"/>
        <path class="cls-2" d="M83.52,64.14l-2.14,5.33-15.71-6.33c.17-.66.74-1.21,1.54-1.21l14.82-.04c1.16,0,1.94,1.18,1.49,2.25Z"/>
        <path class="cls-2" d="M64.14,83.52l5.33-2.14-6.33-15.71c-.66.17-1.21.74-1.21,1.54l-.04,14.82c0,1.16,1.18,1.94,2.25,1.49Z"/>
        <path class="cls-2" d="M6.81,26.19l2.14-5.33,15.71,6.33c-.17.66-.74,1.21-1.54,1.21l-14.82.04c-1.16,0-1.94-1.18-1.49-2.25Z"/>
        <path class="cls-2" d="M26.19,6.81l-5.33,2.14,6.33,15.71c.66-.17,1.21-.74,1.21-1.54l.04-14.82c0-1.16-1.18-1.94-2.25-1.49Z"/>
      </g>
      <g>
        <path class="cls-2" d="M41.98,22.71l-5.34,2.27,6.54,15.81c.66-.18,1.09-.84,1.09-1.65l-.03-14.93c.03-1.24-1.16-2.04-2.27-1.49Z"/>
        <path class="cls-2" d="M48.36,22.71l5.34,2.27-6.54,15.81c-.66-.18-1.09-.84-1.09-1.65l.03-14.93c-.03-1.24,1.16-2.04,2.27-1.49Z"/>
        <path class="cls-2" d="M48.36,67.42l5.34-2.27-6.54-15.81c-.66.18-1.09.84-1.09,1.65l.03,14.93c-.03,1.24,1.16,2.04,2.27,1.49Z"/>
        <path class="cls-2" d="M41.98,67.42l-5.34-2.27,6.54-15.81c.66.18,1.09.84,1.09,1.65l-.03,14.93c.03,1.24-1.16,2.04-2.27,1.49Z"/>
        <path class="cls-2" d="M67.52,41.88l-2.27-5.34-15.81,6.54c.18.66.84,1.09,1.65,1.09l14.93-.03c1.24.03,2.04-1.16,1.49-2.27Z"/>
        <path class="cls-2" d="M67.52,48.25l-2.27,5.34-15.81-6.54c.18-.66.84-1.09,1.65-1.09l14.93.03c1.24-.03,2.04,1.16,1.49,2.27Z"/>
        <path class="cls-2" d="M22.81,48.25l2.27,5.34,15.81-6.54c-.18-.66-.84-1.09-1.65-1.09l-14.93.03c-1.24-.03-2.04,1.16-1.49,2.27Z"/>
        <path class="cls-2" d="M22.81,41.88l2.27-5.34,15.81,6.54c-.18.66-.84,1.09-1.65,1.09l-14.93-.03c-1.24.03-2.04-1.16-1.49-2.27Z"/>
      </g>
      <g>
        <path class="cls-3" d="M32.34,10.67l8.46,8.75c.66.68.42,1.81-.46,2.17l-8.68,3.55c-.89.36-1.86-.3-1.84-1.26l.21-12.29c.02-1.19,1.47-1.76,2.3-.91Z"/>
        <path class="cls-3" d="M58.03,79.65l-8.46-8.75c-.66-.68-.42-1.81.46-2.17l8.68-3.55c.89-.36,1.86.3,1.84,1.26l-.21,12.29c-.02,1.19-1.47,1.76-2.3.91Z"/>
        <path class="cls-3" d="M60.49,11.69l-.2,12.17c-.02.95-.98,1.58-1.86,1.21l-8.64-3.63c-.89-.37-1.1-1.53-.41-2.2l8.84-8.54c.86-.83,2.29-.21,2.27.98Z"/>
        <path class="cls-3" d="M29.88,78.63l.2-12.17c.02-.95.98-1.58,1.86-1.21l8.64,3.63c.89.37,1.1,1.53.41,2.2l-8.84,8.54c-.86.83-2.29.21-2.27-.98Z"/>
        <path class="cls-3" d="M79.68,32.31l-8.75,8.46c-.68.66-1.81.42-2.17-.46l-3.55-8.68c-.36-.89.3-1.86,1.26-1.84l12.29.21c1.19.02,1.76,1.47.91,2.3Z"/>
        <path class="cls-3" d="M10.7,58.01l8.75-8.46c.68-.66,1.81-.42,2.17.46l3.55,8.68c.36.89-.3,1.86-1.26,1.84l-12.29-.21c-1.19-.02-1.76-1.47-.91-2.3Z"/>
        <path class="cls-3" d="M78.66,60.46l-12.17-.2c-.95-.02-1.58-.98-1.21-1.86l3.63-8.64c.37-.89,1.53-1.1,2.2-.41l8.54,8.84c.83.86.21,2.29-.98,2.27Z"/>
        <path class="cls-3" d="M11.71,29.86l12.17.2c.95.02,1.58.98,1.21,1.86l-3.63,8.64c-.37.89-1.53,1.1-2.2.41l-8.54-8.84c-.83-.86-.21-2.29.98-2.27Z"/>
      </g>
      <g>
        <path class="cls-4" d="M30.03,11.67l-.17,12.26c.02.95,1,1.57,1.87,1.2l4.74-1.93-5.63-12.81c-.47.2-.82.68-.8,1.28Z"/>
        <path class="cls-4" d="M60.34,78.65l.17-12.26c-.02-.95-1-1.57-1.87-1.2l-4.74,1.93,5.63,12.81c.47-.2.82-.68.8-1.28Z"/>
        <path class="cls-4" d="M58.15,10.77l-8.79,8.55c-.65.69-.41,1.81.47,2.17l4.72,1.98,5.08-13.03c-.47-.19-1.06-.1-1.47.34Z"/>
        <path class="cls-4" d="M32.22,79.55l8.79-8.55c.65-.69.41-1.81-.47-2.17l-4.72-1.98-5.08,13.03c.47.19,1.06.1,1.47-.34Z"/>
        <path class="cls-4" d="M78.67,30.01l-12.26-.17c-.95.02-1.57,1-1.2,1.87l1.93,4.74,12.81-5.63c-.2-.47-.68-.82-1.28-.8Z"/>
        <path class="cls-4" d="M11.7,60.31l12.26.17c.95-.02,1.57-1,1.2-1.87l-1.93-4.74-12.81,5.63c.2.47.68.82,1.28.8Z"/>
        <path class="cls-4" d="M79.58,58.12l-8.55-8.79c-.69-.65-1.81-.41-2.17.47l-1.98,4.72,13.03,5.08c.19-.47.1-1.06-.34-1.47Z"/>
        <path class="cls-4" d="M10.79,32.2l8.55,8.79c.69.65,1.81.41,2.17-.47l1.98-4.72-13.03-5.08c-.19.47-.1,1.06.34,1.47Z"/>
      </g>
    </g>
  </g>
</svg>